# AST/ASF file generated using VICON BodyLanguage
# -----------------------------------------------
:version 1.10
:name VICON
:units
  mass 1.0
  length 0.45
  angle deg
:documentation
   .ast/.asf automatically generated from VICON data using
   VICON BodyBuilder and BodyLanguage model FoxedUp or BRILLIANT.MOD
:root
   order TX TY TZ RX RY RZ
   axis XYZ
   position 0 0 0  
   orientation 0 0 0 
:bonedata
  begin
     id 1 
     name lhipjoint
     direction 0.578396 -0.714046 0.394458 
     length 2.21935 
     axis 0 0 0  XYZ
  end
  begin
     id 2 
     name lfemur
     direction 0.34202 -0.939693 0  
     length 6.39105  
     axis 0 0 20  XYZ
    dof rx ry rz
    limits (-160.0 20.0)
           (-70.0 70.0)
           (-60.0 70.0)
  end
  begin
     id 3 
     name ltibia
     direction 0.34202 -0.939693 0   
     length 6.99037   
     axis 0 0 20   XYZ
    dof rx
    limits (-10.0 170.0)
  end
  begin
     id 4 
     name lfoot
     direction 0.0582372 -0.160005 0.985397   
     length 2.06111   
     axis -90 7.62852e-016 20   XYZ
    dof rx rz
    limits (-45.0 90.0)
           (-70.0 20.0)
  end
  begin
     id 5 
     name ltoes
     direction 1.53556e-011 -4.21875e-011 1   
     length 1.04074   
     axis -90 7.62852e-016 20   XYZ
    dof rx
    limits (-90.0 20.0)
  end
  begin
     id 6 
     name rhipjoint
     direction -0.558179 -0.726269 0.40121   
     length 2.182  
     axis 0 0 0  XYZ 
  end
  begin
     id 7 
     name rfemur
     direction -0.34202 -0.939693 0   
     length 6.51172   
     axis 0 0 -20   XYZ
    dof rx ry rz
    limits (-160.0 20.0)
           (-70.0 70.0)
           (-70.0 60.0)
  end
  begin
     id 8 
     name rtibia
     direction -0.34202 -0.939693 0   
     length 7.02607   
     axis 0 0 -20   XYZ
    dof rx
    limits (-10.0 170.0)
 end
 begin
     id 9 
     name rfoot
     direction -0.0788856 -0.216737 0.973038   
     length 1.96734  
     axis -90 -7.62852e-016 -20   XYZ
    dof rx rz
    limits (-45.0 90.0)
           (-20.0 70.0)
  end
  begin
     id 10 
     name rtoes
     direction -1.53567e-011 -4.21783e-011 1   
     length 0.990825   
     axis -90 -7.62852e-016 -20   XYZ
    dof rx
    limits (-90.0 20.0)
  end
  begin
     id 11 
     name lowerback
     direction 0.00668177 0.999323 -0.0361741   
     length 1.7655   
     axis 0 0 0   XYZ
    dof rx ry rz
    limits (-20.0 45.0)
           (-30.0 30.0)
           (-30.0 30.0)
  end
  begin
     id 12 
     name upperback
     direction -0.00222086 0.99851 0.0545167   
     length 1.74912   
     axis 0 0 0   XYZ
    dof rx ry rz
    limits (-20.0 45.0)
           (-30.0 30.0)
           (-30.0 30.0)
  end
  begin
     id 13 
     name thorax
     direction -0.00733971 0.997496 0.0703443   
     length 1.75715   
     axis 0 0 0   XYZ
    dof rx ry rz
    limits (-20.0 45.0)
           (-30.0 30.0)
           (-30.0 30.0)
  end
  begin
     id 14 
     name lowerneck
     direction 0.0279797 0.994795 0.0979765   
     length 1.46939   
     axis 0 0 0   XYZ
    dof rx ry rz
    limits (-20.0 45.0)
           (-30.0 30.0)
           (-30.0 30.0)
  end
  begin
     id 15 
     name upperneck
     direction 0.00339187 0.976776 -0.214238   
     length 1.48018   
     axis 0 0 0   XYZ
    dof rx ry rz
    limits (-20.0 45.0)
           (-30.0 30.0)
           (-30.0 30.0)
  end
  begin
     id 16
     name head
     direction -0.00263506 0.996603 -0.0823096  
     length 1.4976  
     axis 0 0 0   XYZ
    dof rx ry rz
    limits (-20.0 45.0)
           (-30.0 30.0)
           (-30.0 30.0)
  end
  begin
     id 17 
     name lclavicle
     direction 0.894044 0.44508 -0.0508781  
     length 3.03024  
     axis 0 0 0   XYZ
    dof ry rz
    limits (-20.0 10.0)
           (0.0 20.0)
  end
  begin
     id 18 
     name lhumerus
     direction 1 -4.48961e-011 -2.39475e-018   
     length 4.4661   
     axis 180 -30 -90   XYZ
    dof rx ry rz
    limits (-60.0 90.0)
           (-90.0 90.0)
           (-90.0 90.0)
  end
  begin
     id 19
     name lradius
     direction 1 -4.48961e-011 9.29328e-028   
     length 3.41414   
     axis 180 -30 -90   XYZ
    dof rx
    limits (-10.0 170.0)
  end
  begin
     id 20
     name lwrist
     direction 1 -4.48985e-011 1.53461e-026   
     length 1.70707   
     axis -1.09697e-014 90 90   XYZ
    dof ry
    limits (-180.0 0.0)
 end
  begin
     id 21 
     name lhand
     direction 1 -4.48966e-011 3.06923e-026   
     length 0.328298   
     axis -1.95843e-014 90 90   XYZ
    dof rx rz
    limits (-90.0 90.0)
           (-45.0 45.0)
  end
  begin
     id 22 
     name lfingers
     direction 1 -4.48893e-011 6.13845e-026   
     length 0.264682   
     axis -3.91686e-014 90 90   XYZ
    dof rx
    limits (0.0 90.0)
  end
  begin
     id 23
     name lthumb
     direction 0.707107 -6.34876e-011 0.707107   
     length 0.380032   
     axis -90 45 2.85299e-015   XYZ
    dof rx rz
    limits (-45.0 45.0)
           (-45.0 45.0)
  end
  begin
     id 24 
     name rclavicle
     direction -0.936955 0.347862 -0.0332887   
     length 3.26927  
     axis 0 0 0   XYZ 
    dof ry rz
    limits (-10.0 20.0)
           (-20.0 0.0)
  end
  begin
     id 25 
     name rhumerus
     direction -1 -4.4896e-011 1.78637e-018  
     length 4.40431   
     axis 180 30 90   XYZ
    dof rx ry rz
    limits (-90.0 60.0)
           (-90.0 90.0)
           (-90.0 90.0)
  end
  begin
     id 26 
     name rradius
     direction -1 -4.48955e-011 9.34036e-027   
     length 3.04688   
     axis 180 30 90   XYZ
    dof rx
    limits (-10.0 170.0)
  end
  begin
     id 27 
     name rwrist
     direction -1 -4.49011e-011 1.53461e-026   
     length 1.52344   
     axis -1.09697e-014 -90 -90   XYZ
    dof ry
    limits (-180.0 0.0)
  end
  begin
     id 28
     name rhand
     direction -1 -4.48834e-011 3.06923e-026   
     length 0.500489   
     axis -1.95843e-014 -90 -90   XYZ
    dof rx rz
    limits (-90.0 90.0)
           (-45.0 45.0)
  end
  begin
     id 29
     name rfingers
     direction -1 -4.48967e-011 6.13845e-026   
     length 0.403507   
     axis -3.91686e-014 -90 -90   XYZ
    dof rx
    limits (0.0 90.0)
  end
  begin
     id 30
     name rthumb
     direction -0.707107 -6.34826e-011 0.707107   
     length 0.579358   
     axis -90 -45 -2.85299e-015   XYZ
    dof rx rz
    limits (-45.0 45.0)
           (-45.0 45.0)
  end
:hierarchy
  begin
    root lhipjoint rhipjoint lowerback
    lhipjoint lfemur
    lfemur ltibia
    ltibia lfoot
    lfoot ltoes
    rhipjoint rfemur
    rfemur rtibia
    rtibia rfoot
    rfoot rtoes
    lowerback upperback
    upperback thorax
    thorax lowerneck lclavicle rclavicle
    lowerneck upperneck
    upperneck head
    lclavicle lhumerus
    lhumerus lradius
    lradius lwrist
    lwrist lhand lthumb
    lhand lfingers
    rclavicle rhumerus
    rhumerus rradius
    rradius rwrist
    rwrist rhand rthumb
    rhand rfingers
  end

#!OML:ASF H:\IndianDance\Patient Classification 1\Patient 1\Session 1\dancer.ASF
:FULLY-SPECIFIED
:DEGREES
141
root -26.1121 14.4439 18.8396 -172.369 -5.00796 -177.618
lowerback 3.89012 1.57377 -0.226932
upperback -3.46421 1.96313 -1.12101
thorax -5.74221 0.925775 -1.20616
lowerneck -14.9986 -8.97692 -8.92411
upperneck 21.1023 -14.5087 12.2446
head 10.8623 -6.48046 3.63217
rclavicle 3.3694e-014 2.38542e-014
rhumerus -22.6084 51.3947 -71.6316
rradius 74.9149
rwrist -20.1902
rhand -27.0021 -1.79378
rfingers 7.12502
rthumb -0.422072 -31.7731
lclavicle 3.3694e-014 2.38542e-014
lhumerus -16.6949 -27.9004 70.8674
lradius 58.5095
lwrist 43.255
lhand -27.1394 46.2566
lfingers 7.12502
lthumb -0.554689 76.2356
rfemur -43.7665 -31.8948 29.2973
rtibia 58.2924
rfoot -23.1612 -6.32752
rtoes 6.64383
lfemur -28.5174 28.3412 -16.1499
ltibia 54.0948
lfoot -27.446 -6.26645
ltoes 2.11464
142
root -26.1227 14.4028 18.8464 -172.442 -5.43342 -177.8
lowerback 3.9571 1.55775 -0.295363
upperback -3.53174 1.92441 -1.24443
thorax -5.85062 0.903773 -1.29614
lowerneck -14.8173 -9.04636 -8.817
upperneck 21.0469 -14.5837 12.0671
head 10.7912 -6.53202 3.54603
rclavicle -2.48481e-016 -1.11319e-014
rhumerus -21.636 52.3174 -69.8989
rradius 76.2397
rwrist -19.293
rhand -27.1855 -1.28677
rfingers 7.12502
rthumb -0.599205 -31.2657
lclavicle -2.48481e-016 -1.11319e-014
lhumerus -16.0875 -29.3714 69.3768
lradius 59.8408
lwrist 43.7156
lhand -27.4479 46.4625
lfingers 7.12502
lthumb -0.852637 76.4406
rfemur -44.225 -32.7772 29.1723
rtibia 59.0309
rfoot -23.3688 -5.68086
rtoes 7.22748
lfemur -28.9172 28.7093 -16.3473
ltibia 54.8667
lfoot -27.8006 -7.09154
ltoes 1.62546
143
root -26.1295 14.3594 18.8516 -172.515 -5.82006 -177.96
lowerback 3.94318 1.57777 -0.3943
upperback -3.53879 1.93641 -1.34669
thorax -5.84984 0.910298 -1.34767
lowerneck -14.6965 -9.17552 -8.91102
upperneck 20.9718 -14.7299 12.0523
head 10.7645 -6.61115 3.53535
rclavicle 6.48535e-015 -1.35174e-014
rhumerus -20.5643 53.1796 -67.9374
rradius 77.5
rwrist -18.1675
rhand -26.9749 0.193943
rfingers 7.12502
rthumb -0.395801 -29.7854
lclavicle 6.48535e-015 -1.35174e-014
lhumerus -15.3291 -30.6897 67.9171
lradius 61.0989
lwrist 43.954
lhand -27.4993 46.5712
lfingers 7.12502
lthumb -0.902307 76.549
rfemur -44.6821 -33.4801 29.0454
rtibia 59.8091
rfoot -23.4818 -5.74909
rtoes 5.85099
lfemur -29.3753 29.1416 -16.5207
ltibia 55.7122
lfoot -28.113 -7.67539
ltoes 0.820901
144
root -26.1356 14.3136 18.8572 -172.583 -6.25315 -178.079
lowerback 4.01776 1.58679 -0.427263
upperback -3.60448 1.93381 -1.45784
thorax -5.95941 0.905037 -1.44836
lowerneck -14.4916 -9.25384 -8.99464
upperneck 20.9014 -14.8472 12.1144
head 10.7261 -6.67698 3.55858
rclavicle -2.75814e-015 1.59028e-015
rhumerus -19.7925 53.9384 -66.285
rradius 78.8606
rwrist -17.6422
rhand -27.2499 1.12538
rfingers 7.12502
rthumb -0.661489 -28.8533
lclavicle -2.75814e-015 1.59028e-015
lhumerus -14.6653 -31.9551 66.6178
lradius 62.2851
lwrist 43.755
lhand -27.3643 46.529
lfingers 7.12502
lthumb -0.771912 76.5073
rfemur -45.1431 -34.1106 28.9654
rtibia 60.6175
rfoot -23.6023 -5.51189
rtoes 6.63884
lfemur -29.9257 29.5343 -16.6421
ltibia 56.6655
lfoot -28.2834 -8.77436
ltoes 2.1014
145
root -26.1367 14.2614 18.8619 -172.664 -6.6592 -178.107
lowerback 4.07496 1.66951 -0.422604
upperback -3.63964 2.03442 -1.57066
thorax -6.0233 0.950133 -1.58015
lowerneck -14.3949 -9.42745 -8.84794
upperneck 20.8128 -15.0646 11.9425
head 10.6739 -6.78438 3.4411
rclavicle -1.55301e-014 2.38542e-015
rhumerus -19.2066 54.3598 -64.738
rradius 80.2003
rwrist -17.1044
rhand -27.319 2.09803
rfingers 7.12502
rthumb -0.728204 -27.8805
lclavicle -1.55301e-014 2.38542e-015
lhumerus -13.8162 -33.4631 65.0129
lradius 63.6709
lwrist 43.8554
lhand -27.5113 46.4604
lfingers 7.12502
lthumb -0.913894 76.4382
rfemur -45.6097 -34.6406 28.969
rtibia 61.4517
rfoot -23.6791 -5.03067
rtoes 8.35746
lfemur -30.5439 30.0763 -16.6912
ltibia 57.7086
lfoot -28.5726 -9.12066
ltoes 0.582507
146
root -26.1395 14.2078 18.8666 -172.793 -7.07947 -178.036
lowerback 4.20042 1.72602 -0.326096
upperback -3.6841 2.11055 -1.62639
thorax -6.13509 0.980912 -1.70483
lowerneck -14.2213 -9.57341 -8.93965
upperneck 20.7176 -15.2636 11.9973
head 10.6428 -6.88601 3.44791
rclavicle -2.3382e-014 -1.11319e-014
rhumerus -18.6305 54.7843 -63.1598
rradius 81.5321
rwrist -16.5837
rhand -27.3059 3.08238
rfingers 7.12502
rthumb -0.715575 -26.8962
lclavicle -2.3382e-014 -1.11319e-014
lhumerus -13.0996 -35.0164 63.3532
lradius 65.2033
lwrist 43.6377
lhand -27.8783 46.6016
lfingers 7.12502
lthumb -1.26839 76.5776
rfemur -45.9957 -35.1219 29.0264
rtibia 62.2694
rfoot -23.7443 -4.57036
rtoes 10.317
lfemur -31.177 30.6185 -16.6385
ltibia 58.8266
lfoot -28.9703 -9.01414
ltoes -1.94881
147
root -26.1405 14.1552 18.8694 -172.992 -7.457 -177.857
lowerback 4.34479 1.73716 -0.0689003
upperback -3.69537 2.14238 -1.65883
thorax -6.21841 0.984678 -1.89131
lowerneck -14.0795 -9.63933 -8.94183
upperneck 20.5988 -15.3317 11.9723
head 10.5786 -6.92623 3.43433
rclavicle -8.54774e-015 -1.03368e-014
rhumerus -17.8693 55.3017 -61.5401
rradius 82.7904
rwrist -16.1754
rhand -27.222 4.0938
rfingers 7.12502
rthumb -0.634541 -25.885
lclavicle -8.54774e-015 -1.03368e-014
lhumerus -12.4314 -36.3908 61.5192
lradius 66.91
lwrist 43.806
lhand -27.2171 46.1305
lfingers 7.12502
lthumb -0.629801 76.1093
rfemur -46.2087 -35.4201 29.1066
rtibia 63.0248
rfoot -23.7955 -4.42393
rtoes 10.7723
lfemur -31.7055 31.2073 -16.376
ltibia 59.9518
lfoot -29.0251 -9.83416
ltoes -1.08227
